<svg xmlns="http://www.w3.org/2000/svg" width="32" height="32" viewBox="0 0 32 32">
  <path d="M27.795 5.274c-1.709-1.677-3.91-2.522-6.093-3.328-2.982-1.101-6.054-0.614-9.12-0.442-4.352 0.243-7.43 2.63-9.933 5.843-0.915 1.178-1.434 2.765-1.798 4.25-0.467 1.894-0.595 3.872-0.851 5.702 0.282 3.168 0.397 6.522 3.046 8.659 1.152 0.928 2.458 1.645 3.757 2.355 1.376 0.749 2.758 1.51 4.262 1.952 2.848 0.832 5.901 0.474 8.813-0.096 1.37-0.269 2.739-0.576 4.038-1.075 1.28-0.493 2.49-1.158 3.584-1.984 0.755-0.57 1.549-1.114 2.214-1.792 0.678-0.691 1.139-1.549 1.562-2.413 0.294-0.595 0.339-1.248 0.422-1.901 0.090-0.762 0.154-1.53 0.198-2.291 0.051-0.915 0.077-1.843 0.096-2.765 0.090-4.109-1.216-7.75-4.198-10.675z"/>
  <path fill="#ffffff" d="M10.769 9.009c1.445 0.341 2.339 1.789 1.998 3.234s-1.789 2.339-3.234 1.998c-1.445-0.341-2.339-1.789-1.998-3.234s1.789-2.339 3.234-1.998z"/>
  <path fill="#ffffff" d="M23.057 9.010c1.445 0.341 2.339 1.789 1.998 3.234s-1.789 2.339-3.234 1.998c-1.445-0.341-2.339-1.789-1.998-3.234s1.789-2.339 3.234-1.998z"/>
</svg>
