<svg aria-hidden="true" style="position: absolute; width: 0; height: 0; overflow: hidden;" version="1.1" xmlns="http://www.w3.org/2000/svg" xmlns:xlink="http://www.w3.org/1999/xlink">
<defs>

<symbol id="icon-yonderguy" viewBox="0 0 32 32">
<path d="M27.795 5.274c-1.709-1.677-3.91-2.522-6.093-3.328-2.982-1.101-6.054-0.614-9.12-0.442-4.352 0.243-7.43 2.63-9.933 5.843-0.915 1.178-1.434 2.765-1.798 4.25-0.467 1.894-0.595 3.872-0.851 5.702 0.282 3.168 0.397 6.522 3.046 8.659 1.152 0.928 2.458 1.645 3.757 2.355 1.376 0.749 2.758 1.51 4.262 1.952 2.848 0.832 5.901 0.474 8.813-0.096 1.37-0.269 2.739-0.576 4.038-1.075 1.28-0.493 2.49-1.158 3.584-1.984 0.755-0.57 1.549-1.114 2.214-1.792 0.678-0.691 1.139-1.549 1.562-2.413 0.294-0.595 0.339-1.248 0.422-1.901 0.090-0.762 0.154-1.53 0.198-2.291 0.051-0.915 0.077-1.843 0.096-2.765 0.090-4.109-1.216-7.75-4.198-10.675z"></path>
<path fill="#fff" style="fill: var(--color2, #fff)" d="M10.769 9.009c1.445 0.341 2.339 1.789 1.998 3.234s-1.789 2.339-3.234 1.998c-1.445-0.341-2.339-1.789-1.998-3.234s1.789-2.339 3.234-1.998z"></path>
<path fill="#fff" style="fill: var(--color2, #fff)" d="M23.057 9.010c1.445 0.341 2.339 1.789 1.998 3.234s-1.789 2.339-3.234 1.998c-1.445-0.341-2.339-1.789-1.998-3.234s1.789-2.339 3.234-1.998z"></path>
</symbol>

<symbol id="icon-addbutton" viewBox="0 0 32 32">
<path d="M16 32c-1.37 0-2.477-1.107-2.477-2.477v-27.046c0-1.37 1.107-2.477 2.477-2.477s2.477 1.107 2.477 2.477v27.046c0 1.37-1.107 2.477-2.477 2.477z"></path>
<path d="M29.523 18.477h-27.046c-1.37 0-2.477-1.107-2.477-2.477s1.107-2.477 2.477-2.477h27.046c1.37 0 2.477 1.107 2.477 2.477s-1.107 2.477-2.477 2.477z"></path>
</symbol>
<symbol id="icon-home" viewBox="0 0 32 32">
<path d="M3.206 24.141c0-1.901 0-3.808 0-5.709 0-0.282 0-0.282-0.282-0.282-0.518 0-1.030 0.026-1.523-0.211-1.523-0.723-1.888-2.714-0.678-3.891 1.19-1.158 2.406-2.291 3.616-3.43 1.037-0.979 2.074-1.965 3.11-2.944 1.971-1.862 3.93-3.738 5.914-5.587 1.472-1.37 3.763-1.37 5.267-0.026 0.749 0.672 1.472 1.376 2.202 2.074 2.707 2.56 5.414 5.126 8.115 7.693 0.781 0.742 1.581 1.472 2.349 2.227 1.133 1.12 0.864 3.027-0.525 3.802-0.422 0.237-0.877 0.307-1.357 0.294-0.608-0.013-0.608-0.006-0.608 0.608 0 3.648-0.013 7.302 0.013 10.95 0.006 0.762-0.538 1.242-1.229 1.229-1.997-0.026-3.987-0.006-5.984-0.006-0.282 0-0.282 0-0.282-0.282 0-2.323 0.006-4.646-0.006-6.963-0.006-0.762-0.090-1.517-0.41-2.227-0.896-1.984-2.4-3.123-4.595-3.277-2.541-0.179-4.685 1.478-5.382 3.731-0.154 0.493-0.23 0.998-0.23 1.51 0 2.4 0 4.8 0 7.2 0 0.307 0 0.307-0.301 0.307-2.010 0-4.019 0-6.029 0-0.736 0-1.158-0.422-1.158-1.165-0.006-1.875-0.006-3.75-0.006-5.626z"></path>
</symbol>
<symbol id="icon-notifs" viewBox="0 0 32 32">
<path d="M16 27.219c-3.642 0-7.277 0-10.918 0-0.922 0-1.542-0.397-1.798-1.126-0.237-0.691-0.006-1.389 0.634-1.875 0.723-0.55 1.446-1.107 2.182-1.638 0.23-0.166 0.307-0.352 0.307-0.627-0.006-3.040 0.026-6.080-0.013-9.12-0.045-4.058 2.618-7.904 6.726-9.178 0.365-0.115 0.499-0.269 0.474-0.646-0.051-0.717-0.006-1.414 0.461-2.029 0.646-0.832 1.702-1.184 2.701-0.858 0.992 0.326 1.651 1.229 1.67 2.285 0.006 0.346-0.122 0.749 0.058 1.030s0.621 0.256 0.941 0.39c3.603 1.51 5.651 4.198 6.157 8.070 0.045 0.333 0.026 0.672 0.026 1.011 0 3.002 0.006 6.010-0.006 9.011 0 0.307 0.083 0.506 0.333 0.685 0.717 0.518 1.414 1.062 2.125 1.594 0.634 0.48 0.883 1.12 0.691 1.792-0.198 0.717-0.762 1.158-1.568 1.229-0.147 0.013-0.301 0.006-0.448 0.006-3.578-0.006-7.155-0.006-10.733-0.006z"></path>
<path d="M16.006 32c-1.619 0-3.053-1.293-3.226-2.912-0.032-0.275 0.064-0.39 0.346-0.39 1.92 0.006 3.834 0.006 5.754 0 0.275 0 0.378 0.109 0.346 0.384-0.173 1.619-1.6 2.918-3.219 2.918z"></path>
</symbol>
<symbol id="icon-profile" viewBox="0 0 32 32">
<path d="M25.267 9.754c0 5.083-4.12 9.203-9.203 9.203s-9.203-4.12-9.203-9.203c0-5.083 4.12-9.203 9.203-9.203s9.203 4.12 9.203 9.203z"></path>
<path d="M32 32h-32c1.133-4.915 4.819-8.954 9.702-10.848 1.939-0.755 4.064-1.171 6.298-1.171s4.358 0.416 6.298 1.171c4.883 1.894 8.57 5.933 9.702 10.848z"></path>
</symbol>
<symbol id="icon-search" viewBox="0 0 32 32">
<path d="M18.592 22.938c-2.97 1.824-6.189 2.355-9.613 1.466-2.784-0.723-5.024-2.291-6.701-4.627-3.354-4.678-2.97-10.944 0.909-15.213 3.757-4.134 10.048-5.126 14.874-2.349 1.395 0.806 2.592 1.837 3.584 3.104 0.998 1.28 1.709 2.707 2.125 4.275 0.416 1.555 0.518 3.13 0.307 4.73-0.211 1.594-0.736 3.085-1.491 4.416 1.555 1.37 3.072 2.707 4.589 4.038 1.286 1.133 2.573 2.278 3.859 3.411 1.21 1.062 1.293 2.49 0.211 3.686-0.192 0.211-0.378 0.422-0.576 0.634-0.966 1.043-2.374 1.126-3.443 0.186-2.272-1.997-4.531-4.006-6.797-6.010-0.301-0.262-0.608-0.518-0.896-0.794-0.301-0.288-0.595-0.602-0.941-0.954zM12.058 20.173c4.109 0.019 7.469-3.296 7.494-7.392s-3.334-7.494-7.43-7.507c-4.064-0.013-7.45 3.322-7.469 7.36-0.013 4.179 3.27 7.526 7.405 7.539z"></path>
</symbol>
<symbol id="icon-settings" viewBox="0 0 32 32">
<path d="M16.48 32c-0.32 0-0.646 0-0.966 0-0.045-0.013-0.090-0.006-0.134-0.013-0.371-0.006-0.736-0.032-1.107-0.077-0.512-0.058-1.024-0.141-1.536-0.237-0.48-0.096-0.774-0.371-0.858-0.819-0.070-0.39-0.147-0.781-0.218-1.178-0.154-0.851-0.314-1.702-0.467-2.547-0.083-0.461-0.307-0.845-0.678-1.133-0.474-0.371-1.011-0.499-1.6-0.358-0.23 0.051-0.448 0.147-0.666 0.224-0.666 0.237-1.331 0.474-2.003 0.71-0.384 0.134-0.768 0.275-1.158 0.41-0.339 0.115-0.659 0.058-0.941-0.166-0.096-0.077-0.166-0.179-0.25-0.269-0.627-0.71-1.184-1.472-1.677-2.278-0.448-0.736-0.838-1.504-1.158-2.31-0.16-0.403-0.326-0.8-0.422-1.222 0-0.070 0-0.134 0-0.205 0.038-0.256 0.154-0.467 0.346-0.634 0.109-0.090 0.218-0.186 0.326-0.275 0.877-0.742 1.754-1.472 2.624-2.221 0.518-0.448 0.717-1.037 0.608-1.715-0.077-0.467-0.32-0.845-0.678-1.152-0.89-0.749-1.773-1.504-2.669-2.253-0.262-0.224-0.512-0.442-0.557-0.813 0-0.070 0-0.134 0-0.205 0.019-0.109 0.051-0.218 0.090-0.326 0.205-0.595 0.435-1.184 0.704-1.754 0.384-0.813 0.838-1.587 1.35-2.33 0.384-0.55 0.8-1.069 1.248-1.568 0.256-0.288 0.576-0.384 0.954-0.301 0.179 0.038 0.352 0.115 0.525 0.179 0.544 0.192 1.088 0.39 1.632 0.582 0.512 0.179 1.024 0.365 1.536 0.544 0.307 0.109 0.614 0.154 0.934 0.096 0.781-0.128 1.376-0.685 1.549-1.453 0.038-0.166 0.064-0.339 0.096-0.506 0.198-1.101 0.403-2.195 0.602-3.296 0.077-0.429 0.371-0.723 0.794-0.806 0.339-0.064 0.672-0.128 1.018-0.179 0.646-0.096 1.299-0.141 1.952-0.16 0.32-0.006 0.646 0 0.966 0.006 0.358 0.013 0.717 0.032 1.075 0.070 0.55 0.058 1.101 0.147 1.645 0.256 0.39 0.083 0.685 0.365 0.762 0.755 0.077 0.41 0.154 0.819 0.23 1.229 0.154 0.845 0.307 1.683 0.461 2.528 0.115 0.608 0.442 1.069 0.992 1.357 0.397 0.205 0.826 0.269 1.267 0.166 0.237-0.058 0.467-0.147 0.698-0.23 0.518-0.179 1.030-0.365 1.542-0.55 0.538-0.192 1.069-0.384 1.606-0.57 0.339-0.115 0.659-0.064 0.941 0.166 0.128 0.102 0.224 0.23 0.326 0.352 0.736 0.851 1.376 1.766 1.92 2.746 0.493 0.883 0.89 1.805 1.203 2.765 0.128 0.39 0.038 0.73-0.256 1.011-0.154 0.141-0.314 0.269-0.474 0.403-0.736 0.621-1.472 1.242-2.208 1.869-0.154 0.128-0.314 0.243-0.442 0.39-0.384 0.429-0.55 0.928-0.48 1.504 0.058 0.454 0.25 0.838 0.595 1.139 0.365 0.32 0.742 0.634 1.114 0.947 0.621 0.525 1.235 1.043 1.856 1.568 0.32 0.275 0.435 0.659 0.307 1.062-0.128 0.39-0.269 0.774-0.429 1.152-0.435 1.056-0.979 2.048-1.632 2.989-0.39 0.563-0.819 1.101-1.28 1.613-0.262 0.288-0.582 0.39-0.96 0.301-0.192-0.045-0.371-0.122-0.557-0.192-0.538-0.192-1.075-0.384-1.613-0.576-0.512-0.179-1.018-0.365-1.53-0.544-0.326-0.115-0.659-0.16-0.998-0.083-0.781 0.179-1.293 0.646-1.478 1.434-0.109 0.474-0.179 0.954-0.269 1.434-0.147 0.794-0.294 1.581-0.435 2.374-0.058 0.326-0.23 0.563-0.525 0.717-0.122 0.064-0.256 0.083-0.39 0.109-0.749 0.154-1.498 0.25-2.259 0.288-0.134 0.045-0.282 0.032-0.435 0.058zM15.994 11.347c-2.566 0-4.646 2.080-4.646 4.646s2.080 4.659 4.64 4.659c2.592 0 4.666-2.080 4.666-4.672 0-2.554-2.093-4.634-4.659-4.634z"></path>
</symbol>
<symbol id="icon-bookmarks" viewBox="0 0 32 32">
<path d="M5.766 32c-0.211 0-0.429 0-0.64 0-0.41-0.128-0.742-0.358-0.954-0.742-0.192-0.346-0.262-0.723-0.262-1.114 0-9.12 0-18.24 0-27.36 0-0.122-0.006-0.243 0.013-0.358 0.198-1.357 1.421-2.426 2.79-2.426 6.221 0 12.442 0 18.669 0 0.493 0 0.954 0.128 1.363 0.39 0.896 0.57 1.344 1.389 1.344 2.458 0 9.088 0 18.176 0 27.258 0 0.090 0.006 0.173-0.006 0.262-0.051 0.653-0.288 1.376-1.171 1.632-0.198 0-0.397 0-0.602 0-0.416-0.122-0.774-0.346-1.094-0.634-0.486-0.429-0.979-0.838-1.472-1.261-2.182-1.856-4.358-3.712-6.541-5.568-0.205-0.173-0.422-0.333-0.685-0.397-0.563-0.128-1.075-0.045-1.536 0.339-2.694 2.291-5.389 4.582-8.083 6.874-0.339 0.294-0.704 0.525-1.133 0.646z"></path>
</symbol>
<symbol id="icon-login" viewBox="0 0 32 32">
<path d="M31.994 5.53c0-0.986-0.23-1.882-0.691-2.669-1.088-1.882-2.726-2.842-4.877-2.848-2.758-0.019-5.568-0.013-8.282-0.013h-0.083c-1.101 0-2.202 0-3.296 0-0.595 0-1.184 0.083-1.747 0.256-2.214 0.666-3.84 2.803-3.872 5.088-0.013 1.037-0.013 2.048 0 3.258 0.006 0.666 0.346 1.299 0.902 1.69 0.563 0.397 1.286 0.493 1.92 0.262 0.877-0.314 1.421-1.107 1.427-2.067 0-0.602 0-1.21 0-1.798v-0.051c0-0.339 0-0.678 0-1.018v-0.058c0-0.109 0-0.205 0.013-0.269 0.128-0.627 0.627-1.037 1.267-1.037 1.51 0 3.021 0 4.486 0h3.245c1.331 0 2.669 0 4.006 0 0.23 0 0.397 0.026 0.525 0.090 0.557 0.256 0.8 0.634 0.806 1.229 0.006 2.547 0.006 5.12 0 7.603 0 0.941 0 1.875 0 2.816v3.181c0 2.419 0 4.838 0 7.258 0 0.768-0.538 1.312-1.312 1.312-2.394 0-4.787 0-7.181 0h-0.653c-1.299 0-2.605 0-3.904 0-0.122 0-0.237-0.013-0.346-0.038-0.557-0.128-0.954-0.614-0.96-1.178-0.006-0.576-0.006-1.158-0.006-1.722h-0.403l0.403-0.006c0-0.429 0-0.864 0-1.299-0.006-1.242-0.922-2.176-2.131-2.176h-0.013c-1.197 0.006-2.106 0.947-2.106 2.189 0 0.288 0 0.57 0 0.864 0 0.704-0.006 1.434 0.006 2.15 0.019 1.542 0.589 2.861 1.696 3.93 1.056 1.018 2.355 1.536 3.859 1.542 1.504 0 3.11 0.006 5.062 0.006 1.51 0 3.014 0 4.493 0h2.182c0.352 0 0.691-0.032 1.005-0.083 2.637-0.474 4.55-2.758 4.557-5.427 0.006-7.053 0.006-14.24 0-20.966z"></path>
<path d="M17.414 18.682l0.013-0.013c0.179-0.179 0.358-0.358 0.538-0.538h-15.757c-0.051 0-0.115 0-0.179 0-0.589-0.026-1.139-0.294-1.523-0.742s-0.563-1.037-0.493-1.619c0.134-1.114 1.018-1.888 2.157-1.888h2.253c4.512 0 9.024 0 13.542 0-0.365-0.365-0.73-0.73-1.094-1.094-0.512-0.512-0.723-1.184-0.595-1.888 0.141-0.787 0.653-1.382 1.402-1.632 0.813-0.269 1.6-0.077 2.221 0.538 1.094 1.094 2.195 2.189 3.29 3.29l1.363 1.363c0.902 0.902 0.902 2.208 0 3.11-1.485 1.485-3.008 3.008-4.659 4.659-0.416 0.416-0.966 0.64-1.549 0.64 0 0 0 0 0 0-0.557 0-1.075-0.211-1.459-0.589-0.41-0.403-0.64-0.941-0.64-1.504 0-0.582 0.23-1.133 0.653-1.562 0.166-0.186 0.339-0.358 0.518-0.531z"></path>
</symbol>
<symbol id="icon-logout" viewBox="0 0 32 32">
<path d="M31.994 5.53c0-0.986-0.23-1.882-0.691-2.669-1.088-1.882-2.726-2.842-4.877-2.848-2.758-0.019-5.568-0.013-8.282-0.013h-0.083c-1.101 0-2.202 0-3.296 0-0.595 0-1.184 0.083-1.747 0.256-2.214 0.666-3.84 2.803-3.872 5.088-0.013 1.037-0.013 2.048 0 3.258 0.006 0.666 0.346 1.299 0.902 1.69 0.563 0.397 1.286 0.493 1.92 0.262 0.877-0.314 1.421-1.107 1.427-2.067 0-0.602 0-1.21 0-1.798v-0.051c0-0.339 0-0.678 0-1.018v-0.058c0-0.109 0-0.205 0.013-0.269 0.128-0.627 0.627-1.037 1.267-1.037 1.51 0 3.021 0 4.486 0h3.245c1.331 0 2.669 0 4.006 0 0.23 0 0.397 0.026 0.525 0.090 0.557 0.256 0.8 0.634 0.806 1.229 0.006 2.547 0.006 5.12 0 7.603 0 0.941 0 1.875 0 2.816v3.181c0 2.419 0 4.838 0 7.258 0 0.768-0.538 1.312-1.312 1.312-2.394 0-4.787 0-7.181 0h-0.653c-1.299 0-2.605 0-3.904 0-0.122 0-0.237-0.013-0.346-0.038-0.557-0.128-0.954-0.614-0.96-1.178-0.006-0.576-0.006-1.158-0.006-1.722h-0.403l0.403-0.006c0-0.429 0-0.864 0-1.299-0.006-1.242-0.922-2.176-2.131-2.176h-0.013c-1.197 0.006-2.106 0.947-2.106 2.189 0 0.288 0 0.57 0 0.864 0 0.704-0.006 1.434 0.006 2.15 0.019 1.542 0.589 2.861 1.696 3.93 1.056 1.018 2.355 1.536 3.859 1.542 1.504 0 3.11 0.006 5.062 0.006 1.51 0 3.014 0 4.493 0h2.182c0.352 0 0.691-0.032 1.005-0.083 2.637-0.474 4.55-2.758 4.557-5.427 0.006-7.053 0.006-14.24 0-20.966z"></path>
<path d="M7.814 18.682l-0.013-0.013c-0.179-0.179-0.358-0.358-0.538-0.538h15.757c0.051 0 0.115 0 0.179 0 0.589-0.026 1.139-0.294 1.523-0.742s0.563-1.037 0.493-1.619c-0.134-1.114-1.018-1.888-2.157-1.888h-2.253c-4.512 0-9.024 0-13.542 0 0.365-0.365 0.73-0.73 1.094-1.094 0.512-0.512 0.723-1.184 0.595-1.888-0.141-0.787-0.653-1.382-1.402-1.632-0.813-0.269-1.6-0.077-2.221 0.538-1.094 1.094-2.195 2.189-3.29 3.29l-1.363 1.363c-0.902 0.902-0.902 2.208 0 3.11 1.485 1.485 3.008 3.008 4.659 4.659 0.416 0.416 0.966 0.64 1.549 0.64 0 0 0 0 0 0 0.557 0 1.075-0.211 1.459-0.589 0.41-0.403 0.64-0.941 0.64-1.504 0-0.582-0.23-1.133-0.653-1.562-0.173-0.186-0.346-0.358-0.518-0.531z"></path>
</symbol>

</defs>
</svg>