<?xml version="1.0" encoding="utf-8"?>
<!-- Generator: Adobe Illustrator 26.2.1, SVG Export Plug-In . SVG Version: 6.00 Build 0)  -->
<svg version="1.1" id="Layer_1" xmlns="http://www.w3.org/2000/svg" xmlns:xlink="http://www.w3.org/1999/xlink" x="0px" y="0px"
	 viewBox="0 0 340 200" style="enable-background:new 0 0 500 500;" xml:space="preserve">
<link xmlns="http://www.w3.org/1999/xhtml" rel="stylesheet" href="/static/css/styles.css" type="text/css"/>
<!-- <defs> -->
<symbol id="guySymbol" viewBox="0 0 500 500">



<style type="text/css">
@import url("../css/styles.css");



	.st1{display:inline;}
	.st2{fill:#BAC693;}
	.st3{fill:#BDCBE9;}
	.st4{fill:#EEBEDC;}
	.st5{fill:#F4DD81;}
	.st17{fill:#231F20;}
	.st18{fill:#FFFFFF;}
</style>
<g id="guy">
	<path id="guy-leg-right" class="st17" d="M218.2,361.3l-1.4-0.8c-4.1-2.4-6.4-5.2-9-8.5c-0.3-0.4-0.7-0.9-1.1-1.3
		c-3.9-4.8-7.1-9.7-9.5-14.6l3.8-1.9c2.3,4.6,5.3,9.3,9,13.8c0.4,0.5,0.7,0.9,1.1,1.3c2.2,2.7,3.9,4.8,6.5,6.6l8.8-8.8l3,3
		L218.2,361.3z"/>
	<path id="guy-leg-left" class="st17" d="M142.3,362.2l-11.1-11.1l3-3l8.8,8.8c2.6-1.8,4.3-3.9,6.5-6.6c0.3-0.4,0.7-0.9,1.1-1.3
		c3.7-4.5,6.7-9.2,9-13.8l3.8,1.9c-2.4,4.9-5.6,9.8-9.5,14.6c-0.4,0.4-0.7,0.9-1.1,1.3c-2.6,3.2-4.9,6-9,8.5L142.3,362.2z"/>
	<path id="guy-body_00000088107882771074620090000008766748052095829150_" class="st2" d="M212.3,261c-5.5-5.4-12.5-8.1-19.5-10.7
		c-9.6-3.5-19.4-2-29.2-1.4c-13.9,0.8-23.8,8.4-31.8,18.7c-2.9,3.8-4.6,8.9-5.8,13.6c-1.5,6.1-1.9,12.4-2.7,18.3
		c0.9,10.1,1.3,20.9,9.8,27.7c3.7,3,7.9,5.3,12,7.5c4.4,2.4,8.8,4.8,13.7,6.2c9.1,2.7,18.9,1.5,28.2-0.3c4.4-0.9,8.8-1.9,12.9-3.5
		c4.1-1.6,8-3.7,11.5-6.4c2.4-1.8,5-3.6,7.1-5.7c2.2-2.2,3.6-5,5-7.7c0.9-1.9,1.1-4,1.3-6.1c0.3-2.4,0.5-4.9,0.6-7.4
		c0.2-2.9,0.2-5.9,0.3-8.9C226.1,282,221.9,270.4,212.3,261z"/>
	
		<ellipse id="guy-eye-left" transform="matrix(0.2298 -0.9732 0.9732 0.2298 -153.8461 368.3281)" class="st18" cx="155.8" cy="281.4" rx="8.6" ry="8.6"/>
	
		<ellipse id="guy-eye-right" transform="matrix(0.2298 -0.9732 0.9732 0.2298 -123.5208 406.6454)" class="st18" cx="195.1" cy="281.4" rx="8.6" ry="8.6"/>
</g>
<g id="guyhat">
	<path id="guyhat-hat" class="st5" d="M343.9,262.2c-1.6,0-2.9-1.2-3.1-2.8c-0.5-4.2,1.7-8.4,6.3-12.1c8.1-6.5,18.6-9.8,29-9
		c1.7,0.1,3,1.6,2.9,3.4c-0.1,1.7-1.6,3-3.4,2.9c-8.8-0.6-17.7,2.2-24.6,7.7c-1.6,1.3-4.3,3.9-4,6.4c0.2,1.7-1,3.3-2.8,3.5
		C344.2,262.2,344.1,262.2,343.9,262.2z"/>
	<path id="guyhat-leg-right" class="st17" d="M367.4,373.5l-1.4-0.8c-4.1-2.4-6.4-5.2-9-8.5c-0.3-0.4-0.7-0.9-1.1-1.3
		c-3.9-4.8-7.1-9.7-9.5-14.6l3.8-1.9c2.3,4.6,5.3,9.3,9,13.8c0.4,0.5,0.7,0.9,1.1,1.3c2.2,2.7,3.9,4.8,6.5,6.6l8.8-8.8l3,3
		L367.4,373.5z"/>
	<path id="guyhat-leg-left" class="st17" d="M291.6,374.4l-11.1-11.1l3-3l8.8,8.8c2.6-1.8,4.3-3.9,6.5-6.6c0.3-0.4,0.7-0.9,1.1-1.3
		c3.7-4.5,6.7-9.2,9-13.8l3.8,1.9c-2.4,4.9-5.6,9.8-9.5,14.6c-0.4,0.4-0.7,0.9-1.1,1.3c-2.6,3.2-4.9,6-9,8.5L291.6,374.4z"/>
	<path id="guyhat-body_00000109745631734090980460000016409726118992096896_" class="st4" d="M367.3,270.3
		c-5.5-5.4-12.5-8.1-19.5-10.7c-9.6-3.5-19.4-2-29.2-1.4c-13.9,0.8-23.8,8.4-31.8,18.7c-2.9,3.8-4.6,8.9-5.8,13.6
		c-1.5,6.1-1.9,12.4-2.7,18.3c0.9,10.1,1.3,20.9,9.8,27.7c3.7,3,7.9,5.3,12,7.5c4.4,2.4,8.8,4.8,13.7,6.2c9.1,2.7,18.9,1.5,28.2-0.3
		c4.4-0.9,8.8-1.9,12.9-3.5c3.6-1.4,7-3.2,10.1-5.4c2.4-1.7,4.4-3.9,6.7-5.7c3.3-2.7,5.5-6.1,7.2-10c0.8-1.8,0.8-3.8,1-5.7
		c0.2-2.1,0.4-4.3,0.5-6.5c0.2-2.9,0.2-5.9,0.3-8.9C381.1,291.4,376.9,279.7,367.3,270.3z"/>
	
		<ellipse id="guyhat-eye-left" transform="matrix(0.1602 -0.9871 0.9871 0.1602 -25.9293 550.8774)" class="st18" cx="310.8" cy="290.7" rx="8.6" ry="8.6"/>
	<circle id="guyhat-eye-right" class="st18" cx="350.1" cy="290.7" r="8.6"/>
	<circle id="guyhat-dot" class="st3" cx="385.4" cy="243.6" r="4.6"/>
</g>
<g id="yonder_00000166677823633098940530000008180950502110807988_">
	<path class="st17" d="M243.8,204.1c0,0.3,0,0.7,0,1c0,2-0.8,4.1-2.4,5.3c-2.1,1.6-5,1.2-7.7,1.2c-2.9,0-5.5-0.5-7.3-3
		c-1-1.4-1.6-3.1-2.3-4.7c-3.2-8.1-8-14.7-12.7-21.9c-2.8-4.3-5.6-8.7-8.4-13l4.6,31.7c1.3,8.3-0.5,10.6-8.8,11.6L191,213
		c-8.3,0.9-10.4-0.9-10.6-9.4c-0.2-9-0.4-18-0.5-26.9c-0.2-9-0.3-17.9-0.5-26.9c-0.1-2.9-0.1-5.7-0.2-8.6c-0.1-4.5-1.2-8.1,3.4-11.1
		c2.5-1.6,5.7-1.9,8.7-1.9c1.1,0,2.2,0,3.3,0.3c6.8,1.4,7.6,9.7,11.2,14.6c2,2.7,4,5.4,6,8.1c1.9,2.5,3.7,5.1,5.6,7.6
		c0.4,0.6,2.5,2.6,2.5,3.4c0,0-3.3-24-3.3-24c-1.2-8.1,0.8-10.2,8.9-9.3l5,0.6c8.4,0.9,10.5,3.2,10.8,11.7c0.2,5.3,0.4,10.7,0.6,16
		c0.3,8.2,0.6,16.4,0.9,24.5c0.1,3.7,0.3,7.5,0.4,11.2c0.1,1.7,0.2,3.4,0.1,5.1C243.1,200.2,243.7,202,243.8,204.1z"/>
	<path class="st17" d="M39.8,131c1-1.2,2.6-2.1,4.1-2.8c3.6-1.6,7.5-2.5,11.4-2.6c1.3,0,2.8,0,3.9,0.7c1.2,0.7,1.9,1.9,2.6,3.1
		c4.9,8.3,9.9,16.5,14.8,24.8c4.6-7.8,9.3-15.6,13.9-23.3c0.8-1.3,1.6-2.7,2.9-3.6c2.1-1.4,4.8-1.2,7.2-0.8
		c4.3,0.6,9.1,1.6,11.2,5.4c2,3.6,0.5,8.2-1.6,11.8c-5.8,9.9-15.8,17.4-19.4,28.3c-3.7,11.1-0.1,23.3-1.1,34.9
		c-0.1,0.8-0.2,1.8-0.8,2.3c-0.7,0.6-1.6,0.7-2.5,0.7c-4.8,0.1-9.6,0.1-14.4,0.1c-3.4-0.1-7.6-0.6-8.3-4.4
		c-0.9-4.9-0.4-10.6-0.1-15.6c0.3-4.2,0.8-8.5-0.1-12.6c-1.1-5.2-4.3-9.7-7.4-14c-5.3-7.5-10.4-15.1-15.3-22.8c-1.5-2.3-3-5-2.2-7.6
		C38.9,132.2,39.3,131.6,39.8,131z"/>
	<path class="st17" d="M101,179.3c0-13.1,3.3-23.2,10-30.5c6.7-7.3,15.9-10.9,27.8-10.9c12.2,0,21.6,3.6,28.1,10.7
		c6.6,7.1,9.9,17.2,9.9,30c0,9.3-1.4,17-4.3,23c-2.9,6-7,10.6-12.5,14c-5.4,3.3-12.2,5-20.3,5c-8.3,0-15.1-1.4-20.5-4.3
		c-5.4-2.9-9.8-7.4-13.1-13.6C102.7,196.4,101,188.6,101,179.3z M124.1,179.3c0.1,0.4,0.1,0.7,0.2,1.1c0.8,3.4,3.3,6.3,6.3,8
		c3,1.8,6.5,2.5,10,2.8c3.8,0.3,8.1-0.2,10.4-3.2c1.7-2.2,2-5.1,2.2-7.9c0.5-6.7,1-12.7-3.2-18.2c-3.6-4.8-9.3-7.3-15-4.6
		C128,160.8,123,171.6,124.1,179.3z"/>
	<path class="st17" d="M249.8,143.5c7-5.8,26-3.3,34.4-3.3c7.3,0,13.2,1,17.7,3c4.5,2,8.2,4.8,11.1,8.5c2.9,3.7,5.1,8,6.4,12.9
		c2.9,10.6,3.1,23.2-0.4,33.7c-2.2,6.7-6.4,12.9-12.3,16.7c-14.4,9.3-34.8,5-50.8,4.1c-1.3-0.1-2.7-0.2-3.9-0.8
		c-3.5-1.8-3.7-6.6-3.5-10.5c0.9-15.6,0.2-31.2-2-46.7c-0.9-6-1.6-13,2.8-17.2C249.5,143.8,249.7,143.6,249.8,143.5z M275.5,161.9
		c-2.2,2.3-3.5,5.7-3.5,8.7c0,3.9,0,7.7,0,11.6c0,1.9,0,3.9,0.7,5.7c2,5.2,9.8,5.5,14.2,3.7c10.6-4.5,12.7-20,5.2-28.4
		c-2.7-3-6.7-4.2-10.7-4.1C279.1,159.1,277.1,160.2,275.5,161.9z"/>
	<path class="st17" d="M323.9,142.9c0.7-0.4,1.5-0.8,2.3-1.1c8-3.2,18-3.2,26.5-3.4c6-0.1,12,0,18,0.4c2.9,0.2,5.8,0.5,8.7,0.9
		c2.1,0.3,4.7,0.2,6.3,1.9c1.2,1.2,1.5,3.1,1.6,4.8c0.2,2,0.4,4,0,5.9c-0.7,3.8-3.5,5.6-7,6.4c-10.8,2.4-22-0.5-32.9,1.3
		c-0.1,2-0.1,4,0,6c0,0.2,0,0.4,0.2,0.6c0.2,0.2,0.5,0.2,0.7,0.2c3.3,0,6.5,0.8,9.8,0.9c3.5,0.1,7.1-0.1,10.6-0.1
		c3.8,0,7.4,0.1,11.2,0.7c0.7,0.1,1.3,0.3,1.8,0.7c0.7,0.7,0.9,1.8,0.9,2.8c0.2,2.9,0.2,5.8,0.2,8.8c0,0.5,0,1-0.2,1.5
		c-0.8,1.9-3.9,1.6-5.5,1.7c-2.8,0.2-5.6,0.4-8.4,0.7c-4.3,0.3-8.7,0.7-12.8,2c-2.6,0.8-5.1,1-7.5,2.3c-0.2,0.1-0.4,0.2-0.5,0.4
		c-0.1,0.2-0.1,0.5-0.1,0.8c0.2,3.2,0.5,6.5,2.1,9.4c0.2,0.3,0.4,0.6,0.7,0.9c0.6,0.4,2.3,0,3,0c1.5-0.1,3-0.4,4.5-0.8
		c5.8-1.5,11.5-2.9,17.3-4.4c2.7-0.7,5.2-0.7,6.1,2.4c1,3.3,1.5,6.8,1.7,10.3c0.1,2.1,0,4.3-1.2,6c-1,1.4-2.7,2.1-4.3,2.8
		c-11.7,4.4-25.3,4.5-37.6,2.5c-4.6-0.8-9.8-2.2-12.8-6c-3.5-4.6-3.9-11-3.4-16.5c0.4-5.2,1.6-10.2,1.8-15.4
		c0.3-7.7-1.5-15.4-3.8-22.8c-1.3-4-3.2-9.6-0.1-13.2C322.3,144.1,323.1,143.5,323.9,142.9z"/>
	<path class="st17" d="M388.3,215.1c0-1.4,0-2.9-0.1-4c-0.4-7.3-0.3-14.5-0.1-21.8c0.5-14.6,1.7-29.1,0.9-43.7
		c-0.2-3.3-0.2-7.2,2.3-9.4c1.1-1,2.6-1.4,4.1-1.8c12.2-3.3,25-4.5,37.5-3.1c5.2,0.6,10.4,1.6,15.1,3.9c4.7,2.3,8.8,6,10.9,10.8
		c2.5,5.7,1.7,12.5-1,18.1c-2.7,5.6-7.1,10.2-11.9,14.1c-1,0.8-2,1.8-1.8,3c0.1,0.5,0.4,0.9,0.7,1.3c5.9,7.7,11.5,15.7,15.4,24.5
		c0.5,1,0.9,2.2,0.7,3.3c-0.2,1.2-0.9,2.2-1.7,3c-1.5,1.7-3.1,3.4-4.8,4.9c-1.9,1.7-4.3,3.4-6.8,3.3c-3.4-0.1-5.9-3.2-8-6
		c-7.9-10.6-16.8-20.3-26.6-29c-0.1,8.9-1.2,17.9-3.4,26.5c-0.9,3.5-2.2,7.3-5.3,9c-2.2,1.2-4.9,1.2-7.4,0.9
		c-2.3-0.2-5.8-0.6-7.4-2.6C388.6,219.4,388.4,217.2,388.3,215.1z M415.5,164.4c2.5,2.2,6.1,3.1,10.6,1.6c3.2-1.1,6.1-3.2,7.5-6.3
		c1.4-3,0.8-7-1.7-9.2c-2.4-2-5.9-2-9-1.9c-2.3,0.1-4.5,0.2-6.8,0.3c-0.6,0-1.3,0.1-1.9,0.4c-0.6,0.4-0.9,1-1.1,1.7
		C411.2,156.3,412.3,161.5,415.5,164.4z"/>
</g>
<!-- </defs> -->
</symbol>
</svg>
